<?xml version="1.0" encoding="utf-8"?>
<!-- Generator: Adobe Illustrator 17.0.0, SVG Export Plug-In . SVG Version: 6.00 Build 0)  -->
<!DOCTYPE svg PUBLIC "-//W3C//DTD SVG 1.1//EN" "http://www.w3.org/Graphics/SVG/1.1/DTD/svg11.dtd">
<svg version="1.1" id="Layer_1" xmlns="http://www.w3.org/2000/svg" xmlns:xlink="http://www.w3.org/1999/xlink" x="0px" y="0px"
	 width="967.883px" height="270.894px" viewBox="0 0 967.883 270.894" enable-background="new 0 0 967.883 270.894"
	 xml:space="preserve">
<g>
	<path fill="#044780" d="M113.008,64.997c7.272,0,14.543,0,23.951,0c-11.394,6.576-10.073,16.375-10.061,25.786
		c0.019,14.959,0.005,29.918,0.005,44.98c2.253-0.076,2.458-2.256,3.274-3.623c12.806-21.448,25.559-42.927,38.247-64.445
		c0.948-1.607,1.464-3.007,3.837-2.963c8.587,0.158,17.178,0.062,25.869,0.062c-17.959,26.728-33.475,54.399-49.717,81.617
		c-6.326,10.601-13.622,18.217-27.107,16.045c-3.106-0.5-5.438,1.848-8.324,2.095C112.991,131.368,113,98.183,113.008,64.997z"/>
	<path fill="#F27426" d="M113.008,64.997c-0.009,33.185-0.018,66.37-0.027,99.555c-3.121-1.536-6.393-2.467-9.892-2.027
		c-10.873,1.368-17.513-4.372-22.682-13.05c-13.876-23.297-27.92-46.493-41.814-69.779c-2.919-4.893-6.022-9.613-11.167-14.858
		c10.152,0,19.077-0.065,28,0.04c2.639,0.031,2.763,2.713,3.755,4.377c13.08,21.912,26.124,43.844,39.204,65.755
		c0.306,0.513,0.931,0.835,1.992,1.751c0.238-20.307-0.097-39.981-1.098-59.64c-0.253-4.969-3.843-8.076-8.965-12.124
		C98.91,64.997,105.959,64.997,113.008,64.997z"/>
	<path fill="#F27628" d="M112.779,56.293c-40.516,0-73.36-10.147-73.36-22.663s32.844-22.663,73.36-22.663"/>
	<path fill="#044780" d="M112.779,10.966c40.516,0,73.36,10.147,73.36,22.663s-32.844,22.663-73.36,22.663"/>
	<ellipse fill="#FFFFFF" cx="112.779" cy="33.629" rx="47.094" ry="14.652"/>
</g>
<g>
	<g>
		<path fill="#044780" d="M928.902,137.874c2.202,0,4.314,0.551,6.337,1.651c2.023,1.101,3.613,2.68,4.771,4.736
			c1.156,2.057,1.734,4.208,1.734,6.455c0,2.236-0.567,4.368-1.701,6.396c-1.135,2.029-2.716,3.61-4.745,4.745
			c-2.028,1.134-4.16,1.702-6.396,1.702s-4.367-0.567-6.396-1.702c-2.028-1.134-3.609-2.716-4.744-4.745
			c-1.135-2.028-1.702-4.16-1.702-6.396c0-2.247,0.579-4.398,1.735-6.455c1.157-2.056,2.747-3.635,4.771-4.736
			C924.588,138.425,926.7,137.874,928.902,137.874z M928.919,140.389c-1.766,0-3.459,0.441-5.08,1.324
			c-1.62,0.883-2.897,2.152-3.831,3.806c-0.933,1.654-1.399,3.387-1.399,5.197c0,1.8,0.455,3.515,1.366,5.147
			s2.183,2.906,3.814,3.823s3.342,1.375,5.13,1.375c1.8,0,3.513-0.458,5.139-1.375s2.897-2.191,3.814-3.823
			c0.916-1.632,1.374-3.347,1.374-5.147c0-1.811-0.467-3.543-1.399-5.197c-0.934-1.654-2.213-2.922-3.84-3.806
			C932.381,140.83,930.685,140.389,928.919,140.389z M923.102,157.59v-13.63h2.767c2.593,0,4.046,0.011,4.358,0.034
			c0.916,0.078,1.629,0.26,2.138,0.545s0.934,0.721,1.274,1.308s0.511,1.238,0.511,1.953c0,0.983-0.321,1.825-0.964,2.523
			c-0.643,0.699-1.545,1.132-2.707,1.299c0.413,0.157,0.731,0.327,0.955,0.512c0.224,0.184,0.531,0.534,0.922,1.048
			c0.101,0.134,0.437,0.687,1.007,1.66l1.609,2.75h-3.421l-1.14-2.213c-0.771-1.486-1.408-2.422-1.911-2.808
			c-0.503-0.385-1.141-0.578-1.911-0.578h-0.721v5.6h-2.766V157.59z M925.868,149.845h1.123c1.598,0,2.59-0.062,2.976-0.185
			s0.69-0.338,0.914-0.646c0.224-0.307,0.335-0.656,0.335-1.048c0-0.38-0.109-0.718-0.327-1.014s-0.527-0.508-0.931-0.637
			c-0.402-0.128-1.391-0.193-2.967-0.193h-1.123V149.845z"/>
	</g>
	<path fill="#054881" d="M473.958,64.197c10.787,0,20.254,0.072,29.72-0.044c2.83-0.035,3.887,0.867,4.694,3.945
		c6.053,23.096,14.727,45.301,21.851,68.039c0.267,0.851,0.947,1.563,1.909,3.096c8.379-26.73,16.564-52.628,24.581-78.581
		c1.723-5.578,0.602-10.717-5.164-15.247c9.344,0,17.4,0,26.135,0c-6.52,20.167-12.891,39.984-19.335,59.776
		c-6.081,18.677-12.309,37.304-18.307,56.009c-1.276,3.979-1.904,7.263-7.346,4.641c-2.561-1.234-6.099-0.291-9.194-0.325
		c-10.157-0.113-14.554-3.248-17.957-13.429c-8.017-23.987-15.951-48.004-23.791-72.054
		C480.069,74.859,478.188,69.866,473.958,64.197z"/>
	<g>
		<path fill="#044780" d="M291.947,93.121c0,8-3.261,14.72-9.779,20.159c-6.521,5.441-14.021,8.16-22.499,8.16l-8.52-0.12
			c4.56-1.689,8.058-4.526,10.5-8.51c2.438-3.982,3.659-8.669,3.659-14.062c0-4.828-1.04-8.851-3.119-12.07
			c-2.321-3.62-5.721-5.632-10.2-6.035h-1.92v66.331c0,2.404,0.18,4.427,0.54,6.069c0.36,1.643,1.119,3.386,2.28,5.228
			c1.159,1.843,2.739,3.485,4.74,4.927h-40.557c0.48-0.318,0.96-0.639,1.44-0.961c0.318-0.24,0.72-0.64,1.2-1.2
			c2.799-2.803,4.2-6.208,4.2-10.212v-74.97c0-0.319-0.36-1.581-1.08-3.783c-0.72-2.201-1.32-3.664-1.8-4.386
			c-0.96-1.2-2.081-2.162-3.36-2.883h42.597c9.839,0,17.579,2.64,23.218,7.919S291.947,84.802,291.947,93.121z"/>
		<path fill="#044780" d="M388.061,162.956l-12.068-0.12c-0.886,0-2.736,0.16-5.552,0.48c-2.816,0.319-5.109,0.48-6.879,0.48
			c-1.932,0-3.461-0.101-4.588-0.3c-1.127-0.201-2.374-0.66-3.74-1.38c-2.093-1.039-4.065-2.88-5.914-5.52
			c-0.483-0.72-1.449-2.4-2.896-5.04l-15.839-30.238v25.318c0,1.92,0,3.84,0,5.76c0.159,1.68,0.679,3.44,1.561,5.279
			c0.559,1.121,1.218,2.1,1.979,2.94c0.759,0.84,1.74,1.661,2.939,2.46h-40.917l2.76-2.04c1.519-1.44,2.619-3,3.3-4.68
			c0.679-1.68,1.02-3.678,1.02-6l-0.119-74.635c0-0.559-0.301-1.818-0.9-3.779c-0.6-1.959-1.28-3.438-2.04-4.44
			c-0.761-1-1.82-1.899-3.18-2.7h47.637c9.84,0,17.357,2.84,22.559,8.52c4.479,4.961,6.72,11.279,6.72,18.958
			c0,5.12-1.641,9.659-4.92,13.619c-3.281,3.96-7.199,6.86-11.759,8.699l-1.2,0.48l2.52,4.08c2.16,3.44,6.399,10.679,12.72,21.718
			c2.159,3.761,4.319,7.241,6.479,10.439c1.68,2.4,3.279,4.439,4.8,6.12C383.819,158.798,385.66,160.637,388.061,162.956z
			 M346.423,96.001c0-4.719-0.92-8.478-2.76-11.279c-2.081-3.12-5.081-4.68-8.999-4.68h-4.08V113.4c3.52,0,6.96-1.599,10.319-4.8
			C344.582,105.081,346.423,100.881,346.423,96.001z"/>
		<path fill="#044780" d="M465.816,140.278l-6.24,22.679H392.86c1.519-0.799,2.318-1.239,2.399-1.32c0.318-0.24,0.72-0.64,1.2-1.2
			c1.359-1.44,2.299-2.939,2.819-4.5c0.52-1.56,0.78-3.459,0.78-5.7V75.962c0-0.559-0.18-1.539-0.54-2.94
			c-0.36-1.398-0.86-2.539-1.5-3.419c-0.881-1.2-1.601-2.08-2.16-2.64c-0.881-0.96-1.76-1.68-2.64-2.16h55.677
			c1.199,0,1.92,0,2.159,0l1.681-0.84v22.798c-0.48-1.119-0.941-1.92-1.38-2.4c-0.441-0.48-1.182-1.099-2.221-1.86
			c-1.04-0.759-2.24-1.359-3.6-1.8c-1.361-0.439-2.399-0.66-3.119-0.66h-14.76v23.999h14.279c0.88,0,1.519,0,1.92,0
			c0.799,0,1.44,0,1.92,0l1.92-0.96v22.199c-0.642-1.92-1.881-3.52-3.72-4.8c-0.881-0.64-2.001-1.099-3.359-1.38
			c-1.361-0.279-2.441-0.42-3.24-0.42h-9.839v28.198c1.919,0.72,4.238,1.32,6.959,1.8c2.719,0.48,5.599,0.72,8.64,0.72
			c0.64,0,1.278,0,1.92,0c0.799-0.159,1.398-0.24,1.8-0.24c5.358-0.64,9.198-1.6,11.52-2.88
			C459.495,145.638,461.976,143.638,465.816,140.278z"/>
	</g>
	<g>
		<path fill="#044780" d="M666.487,164.864H619.93c1.279-0.319,2.499-0.9,3.66-1.74c1.158-0.84,2.1-2.04,2.819-3.6
			c0.721-1.56,1.08-2.979,1.08-4.259c0-1.359-0.32-2.919-0.96-4.68l-5.279-15.719h-29.398l-5.279,15.599
			c-0.642,1.92-0.96,3.641-0.96,5.16c0,1.44,0.3,2.82,0.899,4.14c0.601,1.32,1.579,2.46,2.94,3.42c1.038,0.72,2.279,1.28,3.72,1.68
			h-32.998c0.64-0.559,1.279-1.2,1.92-1.92c0.64-0.72,1.2-1.398,1.68-2.04c1.279-1.519,2.158-2.598,2.639-3.24
			c0.879-1.278,1.56-2.52,2.039-3.72l25.921-74.635c0.399-1.44,0.559-2.599,0.479-3.48c0-2.16-0.642-4.08-1.92-5.759
			c-1.28-1.68-2.88-2.799-4.8-3.36h37.438l30.599,84.474c0.559,1.361,1.199,2.64,1.919,3.84c0.399,0.72,1.3,2.04,2.7,3.96
			C662.186,160.904,664.087,162.865,666.487,164.864z M616.691,120.587l-10.396-28.423l-10.263,28.457L616.691,120.587z"/>
		<path fill="#044780" d="M742.202,144.705l-5.279,20.398h-65.516c0.64-0.318,1.239-0.72,1.8-1.2c0.559-0.48,1.039-0.881,1.44-1.204
			c0.879-0.72,1.758-2.081,2.64-4.083c0.879-2.002,1.319-3.924,1.319-5.767V78.003c0-1.281-0.161-2.501-0.479-3.664
			c-0.321-1.161-0.762-2.141-1.32-2.944c-0.881-1.2-1.68-2.162-2.399-2.883c-0.72-0.72-1.641-1.322-2.76-1.802h40.917
			c-0.72,0.482-1.361,1.044-1.92,1.686c-0.161,0.24-1.08,1.404-2.76,3.489c-0.561,0.802-1.02,1.987-1.38,3.551
			s-0.54,2.626-0.54,3.188v70.034c2.56,0.964,4.959,1.607,7.199,1.928c2.239,0.32,4.8,0.48,7.68,0.48
			c5.439,0,9.559-0.48,12.359-1.44C734.883,149.066,737.883,147.426,742.202,144.705z"/>
		<path fill="#044780" d="M820.437,142.185l-6.24,22.679h-66.715c1.519-0.799,2.318-1.239,2.399-1.32c0.318-0.24,0.72-0.64,1.2-1.2
			c1.359-1.44,2.299-2.939,2.819-4.5c0.52-1.56,0.78-3.459,0.78-5.7V77.869c0-0.559-0.18-1.539-0.54-2.94
			c-0.36-1.398-0.86-2.539-1.5-3.419c-0.881-1.2-1.601-2.08-2.16-2.64c-0.881-0.96-1.76-1.68-2.64-2.16h55.677
			c1.199,0,1.92,0,2.159,0l1.681-0.84v22.798c-0.48-1.119-0.941-1.92-1.38-2.4c-0.441-0.48-1.182-1.099-2.221-1.86
			c-1.04-0.759-2.24-1.359-3.6-1.8c-1.361-0.439-2.399-0.66-3.119-0.66h-14.76v23.999h14.279c0.88,0,1.519,0,1.92,0
			c0.799,0,1.44,0,1.92,0l1.92-0.96v22.199c-0.642-1.92-1.881-3.52-3.72-4.8c-0.881-0.64-2.001-1.099-3.359-1.38
			c-1.361-0.279-2.441-0.42-3.24-0.42h-9.839v28.198c1.919,0.72,4.238,1.32,6.959,1.8c2.719,0.48,5.599,0.72,8.64,0.72
			c0.64,0,1.278,0,1.92,0c0.799-0.159,1.398-0.24,1.8-0.24c5.358-0.64,9.198-1.6,11.52-2.88
			C814.116,147.545,816.597,145.545,820.437,142.185z"/>
		<path fill="#044780" d="M917.029,164.864l-12.068-0.12c-0.886,0-2.736,0.16-5.552,0.48c-2.816,0.319-5.109,0.48-6.879,0.48
			c-1.932,0-3.461-0.101-4.588-0.3c-1.127-0.201-2.374-0.66-3.74-1.38c-2.093-1.039-4.065-2.88-5.914-5.52
			c-0.483-0.72-1.449-2.4-2.896-5.04l-15.839-30.238v25.318c0,1.92,0,3.84,0,5.76c0.159,1.68,0.679,3.44,1.561,5.279
			c0.559,1.121,1.218,2.1,1.979,2.94c0.759,0.84,1.74,1.661,2.939,2.46h-40.917l2.76-2.04c1.519-1.44,2.619-3,3.3-4.68
			c0.679-1.68,1.02-3.678,1.02-6l-0.119-74.635c0-0.559-0.301-1.818-0.9-3.779c-0.6-1.959-1.28-3.438-2.04-4.44
			c-0.761-1-1.82-1.899-3.18-2.7h47.637c9.84,0,17.357,2.84,22.559,8.52c4.479,4.961,6.72,11.279,6.72,18.958
			c0,5.12-1.641,9.659-4.92,13.619c-3.281,3.96-7.199,6.86-11.759,8.699l-1.2,0.48l2.52,4.08c2.16,3.44,6.399,10.679,12.72,21.718
			c2.159,3.761,4.319,7.241,6.479,10.439c1.68,2.4,3.279,4.439,4.8,6.12C912.788,160.705,914.629,162.544,917.029,164.864z
			 M875.392,97.908c0-4.719-0.92-8.478-2.76-11.279c-2.081-3.12-5.081-4.68-8.999-4.68h-4.08v33.358c3.52,0,6.96-1.599,10.319-4.8
			C873.551,106.988,875.392,102.788,875.392,97.908z"/>
	</g>
</g>
<g>
	<path fill="#004680" d="M256.919,229.361L244.23,193.86h7.774l8.983,26.275l8.695-26.275h7.604l-12.715,35.501H256.919z"/>
	<path fill="#004680" d="M309.969,229.361h-7.797l-3.101-8.064h-14.19l-2.931,8.064h-7.604l13.828-35.501h7.579L309.969,229.361z
		 M296.772,215.316l-4.892-13.174l-4.795,13.174H296.772z"/>
	<path fill="#004680" d="M314.659,229.361V194.15h7.168v29.229h17.824v5.981L314.659,229.361L314.659,229.361z"/>
	<path fill="#004680" d="M344.002,211.828c0-3.616,0.541-6.651,1.622-9.105c0.808-1.808,1.909-3.431,3.306-4.868
		c1.396-1.437,2.927-2.502,4.59-3.196c2.211-0.937,4.762-1.405,7.652-1.405c5.23,0,9.416,1.623,12.556,4.868s4.71,7.757,4.71,13.537
		c0,5.731-1.558,10.215-4.674,13.452c-3.115,3.237-7.281,4.855-12.495,4.855c-5.279,0-9.478-1.61-12.593-4.831
		C345.56,221.914,344.002,217.479,344.002,211.828z M351.388,211.586c0,4.02,0.929,7.067,2.785,9.142
		c1.856,2.075,4.214,3.112,7.071,3.112s5.202-1.029,7.035-3.087c1.832-2.059,2.748-5.146,2.748-9.263
		c0-4.069-0.892-7.104-2.676-9.105s-4.153-3.003-7.107-3.003s-5.336,1.013-7.144,3.039
		C352.292,204.447,351.388,207.502,351.388,211.586z"/>
	<path fill="#004680" d="M384.751,229.361V193.86h15.087c3.793,0,6.55,0.319,8.27,0.957s3.096,1.772,4.129,3.402
		c1.033,1.631,1.55,3.496,1.55,5.594c0,2.664-0.783,4.864-2.349,6.599s-3.907,2.829-7.023,3.281c1.55,0.904,2.83,1.897,3.839,2.979
		s2.369,3.003,4.08,5.764l4.335,6.926h-8.572l-5.183-7.725c-1.841-2.761-3.1-4.5-3.777-5.219c-0.679-0.718-1.397-1.211-2.155-1.477
		c-0.76-0.267-1.962-0.399-3.608-0.399h-1.453v14.82h-7.17V229.361z M391.919,208.874h5.303c3.439,0,5.586-0.145,6.442-0.436
		c0.855-0.291,1.525-0.791,2.01-1.501s0.727-1.599,0.727-2.664c0-1.194-0.319-2.159-0.957-2.894c-0.638-0.734-1.537-1.199-2.7-1.392
		c-0.581-0.081-2.324-0.121-5.23-0.121h-5.594L391.919,208.874L391.919,208.874z"/>
	<path fill="#004680" d="M421.237,229.361V193.86h26.323v6.006h-19.155v7.87h17.823v5.981h-17.823v9.663h19.833v5.981H421.237z"/>
	<path fill="#004680" d="M467.669,217.81l6.975-0.678c0.419,2.341,1.271,4.061,2.555,5.158c1.283,1.098,3.015,1.647,5.194,1.647
		c2.309,0,4.048-0.488,5.219-1.465c1.17-0.977,1.756-2.119,1.756-3.427c0-0.839-0.246-1.554-0.739-2.143
		c-0.492-0.589-1.352-1.102-2.578-1.538c-0.84-0.291-2.753-0.807-5.74-1.55c-3.842-0.953-6.538-2.123-8.088-3.512
		c-2.18-1.953-3.27-4.334-3.27-7.144c0-1.808,0.513-3.5,1.538-5.074s2.502-2.772,4.432-3.596c1.929-0.823,4.258-1.235,6.986-1.235
		c4.456,0,7.81,0.977,10.063,2.93c2.252,1.954,3.435,4.561,3.547,7.822l-7.168,0.314c-0.307-1.824-0.965-3.136-1.974-3.935
		s-2.522-1.199-4.54-1.199c-2.083,0-3.714,0.428-4.892,1.284c-0.76,0.549-1.139,1.283-1.139,2.204c0,0.839,0.355,1.558,1.065,2.155
		c0.904,0.759,3.1,1.55,6.587,2.373s6.066,1.675,7.737,2.555c1.671,0.88,2.979,2.083,3.923,3.608
		c0.944,1.526,1.417,3.411,1.417,5.655c0,2.034-0.565,3.939-1.695,5.715s-2.729,3.096-4.795,3.959
		c-2.066,0.864-4.642,1.295-7.725,1.295c-4.488,0-7.936-1.037-10.341-3.112C469.574,224.805,468.137,221.782,467.669,217.81z"/>
	<path fill="#004680" d="M503.211,193.86h7.168v19.228c0,3.051,0.089,5.029,0.267,5.933c0.307,1.453,1.037,2.62,2.191,3.499
		c1.154,0.88,2.732,1.32,4.734,1.32c2.034,0,3.568-0.416,4.602-1.247c1.033-0.831,1.654-1.853,1.864-3.063s0.315-3.221,0.315-6.03
		v-19.64h7.168v18.647c0,4.262-0.194,7.273-0.581,9.033c-0.388,1.76-1.103,3.245-2.144,4.456s-2.434,2.176-4.178,2.894
		c-1.743,0.718-4.02,1.078-6.828,1.078c-3.391,0-5.962-0.392-7.714-1.174c-1.752-0.783-3.136-1.8-4.152-3.052
		c-1.018-1.25-1.688-2.563-2.011-3.935c-0.468-2.034-0.702-5.037-0.702-9.008L503.211,193.86L503.211,193.86z"/>
	<path fill="#004680" d="M552.428,217.81l6.975-0.678c0.419,2.341,1.271,4.061,2.555,5.158c1.283,1.098,3.015,1.647,5.194,1.647
		c2.309,0,4.048-0.488,5.219-1.465c1.17-0.977,1.756-2.119,1.756-3.427c0-0.839-0.246-1.554-0.739-2.143
		c-0.492-0.589-1.352-1.102-2.578-1.538c-0.84-0.291-2.753-0.807-5.74-1.55c-3.842-0.953-6.538-2.123-8.088-3.512
		c-2.18-1.953-3.27-4.334-3.27-7.144c0-1.808,0.513-3.5,1.538-5.074s2.502-2.772,4.432-3.596c1.929-0.823,4.258-1.235,6.986-1.235
		c4.456,0,7.81,0.977,10.063,2.93c2.252,1.954,3.435,4.561,3.547,7.822l-7.168,0.314c-0.307-1.824-0.965-3.136-1.974-3.935
		s-2.522-1.199-4.54-1.199c-2.083,0-3.714,0.428-4.892,1.284c-0.76,0.549-1.139,1.283-1.139,2.204c0,0.839,0.355,1.558,1.065,2.155
		c0.904,0.759,3.1,1.55,6.587,2.373s6.066,1.675,7.737,2.555c1.671,0.88,2.979,2.083,3.923,3.608
		c0.944,1.526,1.417,3.411,1.417,5.655c0,2.034-0.565,3.939-1.695,5.715s-2.729,3.096-4.795,3.959
		c-2.066,0.864-4.642,1.295-7.725,1.295c-4.488,0-7.936-1.037-10.341-3.112C554.333,224.805,552.896,221.782,552.428,217.81z"/>
	<path fill="#004680" d="M620.032,229.361h-7.797l-3.101-8.064h-14.19l-2.931,8.064h-7.604l13.828-35.501h7.579L620.032,229.361z
		 M606.835,215.316l-4.892-13.174l-4.795,13.174H606.835z"/>
	<path fill="#004680" d="M624.723,229.361V194.15h7.168v29.229h17.824v5.981L624.723,229.361L624.723,229.361z"/>
	<path fill="#004680" d="M655.47,193.86h7.168v19.228c0,3.051,0.089,5.029,0.267,5.933c0.307,1.453,1.037,2.62,2.191,3.499
		c1.154,0.88,2.732,1.32,4.734,1.32c2.034,0,3.568-0.416,4.602-1.247c1.033-0.831,1.654-1.853,1.864-3.063s0.315-3.221,0.315-6.03
		v-19.64h7.168v18.647c0,4.262-0.194,7.273-0.581,9.033c-0.388,1.76-1.103,3.245-2.144,4.456s-2.434,2.176-4.178,2.894
		c-1.743,0.718-4.02,1.078-6.828,1.078c-3.391,0-5.962-0.392-7.714-1.174c-1.752-0.783-3.136-1.8-4.152-3.052
		c-1.018-1.25-1.688-2.563-2.011-3.935c-0.468-2.034-0.702-5.037-0.702-9.008L655.47,193.86L655.47,193.86z"/>
	<path fill="#004680" d="M692.005,193.86h13.102c2.954,0,5.206,0.226,6.756,0.678c2.083,0.614,3.866,1.703,5.353,3.269
		c1.484,1.566,2.615,3.483,3.39,5.751c0.775,2.269,1.162,5.065,1.162,8.391c0,2.922-0.362,5.441-1.089,7.556
		c-0.889,2.583-2.155,4.674-3.803,6.272c-1.243,1.211-2.922,2.155-5.037,2.833c-1.582,0.5-3.696,0.75-6.345,0.75h-13.488v-35.5
		H692.005z M699.173,199.866v23.514h5.352c2.002,0,3.447-0.113,4.335-0.339c1.163-0.291,2.127-0.783,2.895-1.478
		c0.767-0.694,1.392-1.836,1.876-3.427c0.484-1.59,0.727-3.757,0.727-6.502c0-2.744-0.242-4.851-0.727-6.32
		s-1.162-2.616-2.034-3.439c-0.871-0.823-1.978-1.38-3.317-1.671c-1.001-0.226-2.963-0.339-5.885-0.339h-3.222V199.866z"/>
</g>
</svg>
